<?xml version="1.0" encoding="utf-8" standalone="no"?>
<!DOCTYPE svg PUBLIC "-//W3C//DTD SVG 1.1//EN"
  "http://www.w3.org/Graphics/SVG/1.1/DTD/svg11.dtd">
<svg xmlns:xlink="http://www.w3.org/1999/xlink" width="460.8pt" height="345.6pt" viewBox="0 0 460.8 345.6" xmlns="http://www.w3.org/2000/svg" version="1.1">
 <metadata>
  <rdf:RDF xmlns:dc="http://purl.org/dc/elements/1.1/" xmlns:cc="http://creativecommons.org/ns#" xmlns:rdf="http://www.w3.org/1999/02/22-rdf-syntax-ns#">
   <cc:Work>
    <dc:type rdf:resource="http://purl.org/dc/dcmitype/StillImage"/>
    <dc:date>2022-08-15T16:41:56.998789</dc:date>
    <dc:format>image/svg+xml</dc:format>
    <dc:creator>
     <cc:Agent>
      <dc:title>Matplotlib v3.5.2, https://matplotlib.org/</dc:title>
     </cc:Agent>
    </dc:creator>
   </cc:Work>
  </rdf:RDF>
 </metadata>
 <defs>
  <style type="text/css">*{stroke-linejoin: round; stroke-linecap: butt}</style>
 </defs>
 <g id="figure_1">
  <g id="patch_1">
   <path d="M 0 345.6 
L 460.8 345.6 
L 460.8 0 
L 0 0 
z
" style="fill: #ffffff"/>
  </g>
  <g id="axes_1">
   <g id="patch_2">
    <path d="M 44.990865 106.385281 
L 224.577012 106.385281 
L 224.577012 20.61447 
L 44.990865 20.61447 
z
" style="fill: #ffffff"/>
   </g>
   <g id="matplotlib.axis_1">
    <g id="xtick_1">
     <g id="line2d_1">
      <defs>
       <path id="m5bb946ff4e" d="M 0 0 
L 0 3.5 
" style="stroke: #000000; stroke-width: 0.8"/>
      </defs>
      <g>
       <use xlink:href="#m5bb946ff4e" x="53.153872" y="106.385281" style="stroke: #000000; stroke-width: 0.8"/>
      </g>
     </g>
     <g id="text_1">
      <!-- 0 -->
      <g transform="translate(49.972622 120.983719)scale(0.1 -0.1)">
       <defs>
        <path id="DejaVuSans-30" d="M 2034 4250 
Q 1547 4250 1301 3770 
Q 1056 3291 1056 2328 
Q 1056 1369 1301 889 
Q 1547 409 2034 409 
Q 2525 409 2770 889 
Q 3016 1369 3016 2328 
Q 3016 3291 2770 3770 
Q 2525 4250 2034 4250 
z
M 2034 4750 
Q 2819 4750 3233 4129 
Q 3647 3509 3647 2328 
Q 3647 1150 3233 529 
Q 2819 -91 2034 -91 
Q 1250 -91 836 529 
Q 422 1150 422 2328 
Q 422 3509 836 4129 
Q 1250 4750 2034 4750 
z
" transform="scale(0.015625)"/>
       </defs>
       <use xlink:href="#DejaVuSans-30"/>
      </g>
     </g>
    </g>
    <g id="xtick_2">
     <g id="line2d_2">
      <g>
       <use xlink:href="#m5bb946ff4e" x="118.72019" y="106.385281" style="stroke: #000000; stroke-width: 0.8"/>
      </g>
     </g>
     <g id="text_2">
      <!-- 100 -->
      <g transform="translate(109.17644 120.983719)scale(0.1 -0.1)">
       <defs>
        <path id="DejaVuSans-31" d="M 794 531 
L 1825 531 
L 1825 4091 
L 703 3866 
L 703 4441 
L 1819 4666 
L 2450 4666 
L 2450 531 
L 3481 531 
L 3481 0 
L 794 0 
L 794 531 
z
" transform="scale(0.015625)"/>
       </defs>
       <use xlink:href="#DejaVuSans-31"/>
       <use xlink:href="#DejaVuSans-30" x="63.623047"/>
       <use xlink:href="#DejaVuSans-30" x="127.246094"/>
      </g>
     </g>
    </g>
    <g id="xtick_3">
     <g id="line2d_3">
      <g>
       <use xlink:href="#m5bb946ff4e" x="184.286509" y="106.385281" style="stroke: #000000; stroke-width: 0.8"/>
      </g>
     </g>
     <g id="text_3">
      <!-- 200 -->
      <g transform="translate(174.742759 120.983719)scale(0.1 -0.1)">
       <defs>
        <path id="DejaVuSans-32" d="M 1228 531 
L 3431 531 
L 3431 0 
L 469 0 
L 469 531 
Q 828 903 1448 1529 
Q 2069 2156 2228 2338 
Q 2531 2678 2651 2914 
Q 2772 3150 2772 3378 
Q 2772 3750 2511 3984 
Q 2250 4219 1831 4219 
Q 1534 4219 1204 4116 
Q 875 4013 500 3803 
L 500 4441 
Q 881 4594 1212 4672 
Q 1544 4750 1819 4750 
Q 2544 4750 2975 4387 
Q 3406 4025 3406 3419 
Q 3406 3131 3298 2873 
Q 3191 2616 2906 2266 
Q 2828 2175 2409 1742 
Q 1991 1309 1228 531 
z
" transform="scale(0.015625)"/>
       </defs>
       <use xlink:href="#DejaVuSans-32"/>
       <use xlink:href="#DejaVuSans-30" x="63.623047"/>
       <use xlink:href="#DejaVuSans-30" x="127.246094"/>
      </g>
     </g>
    </g>
   </g>
   <g id="matplotlib.axis_2">
    <g id="ytick_1">
     <g id="line2d_4">
      <defs>
       <path id="m6abb43252e" d="M 0 0 
L -3.5 0 
" style="stroke: #000000; stroke-width: 0.8"/>
      </defs>
      <g>
       <use xlink:href="#m6abb43252e" x="44.990865" y="102.536355" style="stroke: #000000; stroke-width: 0.8"/>
      </g>
     </g>
     <g id="text_4">
      <!-- 0.0000 -->
      <g transform="translate(3.00024 106.335574)scale(0.1 -0.1)">
       <defs>
        <path id="DejaVuSans-2e" d="M 684 794 
L 1344 794 
L 1344 0 
L 684 0 
L 684 794 
z
" transform="scale(0.015625)"/>
       </defs>
       <use xlink:href="#DejaVuSans-30"/>
       <use xlink:href="#DejaVuSans-2e" x="63.623047"/>
       <use xlink:href="#DejaVuSans-30" x="95.410156"/>
       <use xlink:href="#DejaVuSans-30" x="159.033203"/>
       <use xlink:href="#DejaVuSans-30" x="222.65625"/>
       <use xlink:href="#DejaVuSans-30" x="286.279297"/>
      </g>
     </g>
    </g>
    <g id="ytick_2">
     <g id="line2d_5">
      <g>
       <use xlink:href="#m6abb43252e" x="44.990865" y="77.662849" style="stroke: #000000; stroke-width: 0.8"/>
      </g>
     </g>
     <g id="text_5">
      <!-- 0.0025 -->
      <g transform="translate(3.00024 81.462068)scale(0.1 -0.1)">
       <defs>
        <path id="DejaVuSans-35" d="M 691 4666 
L 3169 4666 
L 3169 4134 
L 1269 4134 
L 1269 2991 
Q 1406 3038 1543 3061 
Q 1681 3084 1819 3084 
Q 2600 3084 3056 2656 
Q 3513 2228 3513 1497 
Q 3513 744 3044 326 
Q 2575 -91 1722 -91 
Q 1428 -91 1123 -41 
Q 819 9 494 109 
L 494 744 
Q 775 591 1075 516 
Q 1375 441 1709 441 
Q 2250 441 2565 725 
Q 2881 1009 2881 1497 
Q 2881 1984 2565 2268 
Q 2250 2553 1709 2553 
Q 1456 2553 1204 2497 
Q 953 2441 691 2322 
L 691 4666 
z
" transform="scale(0.015625)"/>
       </defs>
       <use xlink:href="#DejaVuSans-30"/>
       <use xlink:href="#DejaVuSans-2e" x="63.623047"/>
       <use xlink:href="#DejaVuSans-30" x="95.410156"/>
       <use xlink:href="#DejaVuSans-30" x="159.033203"/>
       <use xlink:href="#DejaVuSans-32" x="222.65625"/>
       <use xlink:href="#DejaVuSans-35" x="286.279297"/>
      </g>
     </g>
    </g>
    <g id="ytick_3">
     <g id="line2d_6">
      <g>
       <use xlink:href="#m6abb43252e" x="44.990865" y="52.789344" style="stroke: #000000; stroke-width: 0.8"/>
      </g>
     </g>
     <g id="text_6">
      <!-- 0.0050 -->
      <g transform="translate(3.00024 56.588563)scale(0.1 -0.1)">
       <use xlink:href="#DejaVuSans-30"/>
       <use xlink:href="#DejaVuSans-2e" x="63.623047"/>
       <use xlink:href="#DejaVuSans-30" x="95.410156"/>
       <use xlink:href="#DejaVuSans-30" x="159.033203"/>
       <use xlink:href="#DejaVuSans-35" x="222.65625"/>
       <use xlink:href="#DejaVuSans-30" x="286.279297"/>
      </g>
     </g>
    </g>
    <g id="ytick_4">
     <g id="line2d_7">
      <g>
       <use xlink:href="#m6abb43252e" x="44.990865" y="27.915839" style="stroke: #000000; stroke-width: 0.8"/>
      </g>
     </g>
     <g id="text_7">
      <!-- 0.0075 -->
      <g transform="translate(3.00024 31.715058)scale(0.1 -0.1)">
       <defs>
        <path id="DejaVuSans-37" d="M 525 4666 
L 3525 4666 
L 3525 4397 
L 1831 0 
L 1172 0 
L 2766 4134 
L 525 4134 
L 525 4666 
z
" transform="scale(0.015625)"/>
       </defs>
       <use xlink:href="#DejaVuSans-30"/>
       <use xlink:href="#DejaVuSans-2e" x="63.623047"/>
       <use xlink:href="#DejaVuSans-30" x="95.410156"/>
       <use xlink:href="#DejaVuSans-30" x="159.033203"/>
       <use xlink:href="#DejaVuSans-37" x="222.65625"/>
       <use xlink:href="#DejaVuSans-35" x="286.279297"/>
      </g>
     </g>
    </g>
   </g>
   <g id="line2d_8">
    <path d="M 53.153872 102.486608 
L 216.414005 102.486608 
L 216.414005 102.486608 
" clip-path="url(#p5beb72b9a5)" style="fill: none; stroke: #1f77b4; stroke-width: 1.5; stroke-linecap: square"/>
   </g>
   <g id="line2d_9">
    <path d="M 53.153872 24.513143 
L 216.414005 24.513143 
L 216.414005 24.513143 
" clip-path="url(#p5beb72b9a5)" style="fill: none; stroke: #ff7f0e; stroke-width: 1.5; stroke-linecap: square"/>
   </g>
   <g id="patch_3">
    <path d="M 44.990865 106.385281 
L 44.990865 20.61447 
" style="fill: none; stroke: #000000; stroke-width: 0.8; stroke-linejoin: miter; stroke-linecap: square"/>
   </g>
   <g id="patch_4">
    <path d="M 224.577012 106.385281 
L 224.577012 20.61447 
" style="fill: none; stroke: #000000; stroke-width: 0.8; stroke-linejoin: miter; stroke-linecap: square"/>
   </g>
   <g id="patch_5">
    <path d="M 44.990865 106.385281 
L 224.577012 106.385281 
" style="fill: none; stroke: #000000; stroke-width: 0.8; stroke-linejoin: miter; stroke-linecap: square"/>
   </g>
   <g id="patch_6">
    <path d="M 44.990865 20.61447 
L 224.577012 20.61447 
" style="fill: none; stroke: #000000; stroke-width: 0.8; stroke-linejoin: miter; stroke-linecap: square"/>
   </g>
   <g id="legend_1">
    <g id="patch_7">
     <path d="M 105.530137 58.52697 
L 217.577012 58.52697 
Q 219.577012 58.52697 219.577012 56.52697 
L 219.577012 27.61447 
Q 219.577012 25.61447 217.577012 25.61447 
L 105.530137 25.61447 
Q 103.530137 25.61447 103.530137 27.61447 
L 103.530137 56.52697 
Q 103.530137 58.52697 105.530137 58.52697 
z
" style="fill: #ffffff; opacity: 0.8; stroke: #cccccc; stroke-linejoin: miter"/>
    </g>
    <g id="line2d_10">
     <path d="M 107.530137 33.712908 
L 117.530137 33.712908 
L 127.530137 33.712908 
" style="fill: none; stroke: #1f77b4; stroke-width: 1.5; stroke-linecap: square"/>
    </g>
    <g id="text_8">
     <!-- wheel_velocity1 -->
     <g transform="translate(135.530137 37.212908)scale(0.1 -0.1)">
      <defs>
       <path id="DejaVuSans-77" d="M 269 3500 
L 844 3500 
L 1563 769 
L 2278 3500 
L 2956 3500 
L 3675 769 
L 4391 3500 
L 4966 3500 
L 4050 0 
L 3372 0 
L 2619 2869 
L 1863 0 
L 1184 0 
L 269 3500 
z
" transform="scale(0.015625)"/>
       <path id="DejaVuSans-68" d="M 3513 2113 
L 3513 0 
L 2938 0 
L 2938 2094 
Q 2938 2591 2744 2837 
Q 2550 3084 2163 3084 
Q 1697 3084 1428 2787 
Q 1159 2491 1159 1978 
L 1159 0 
L 581 0 
L 581 4863 
L 1159 4863 
L 1159 2956 
Q 1366 3272 1645 3428 
Q 1925 3584 2291 3584 
Q 2894 3584 3203 3211 
Q 3513 2838 3513 2113 
z
" transform="scale(0.015625)"/>
       <path id="DejaVuSans-65" d="M 3597 1894 
L 3597 1613 
L 953 1613 
Q 991 1019 1311 708 
Q 1631 397 2203 397 
Q 2534 397 2845 478 
Q 3156 559 3463 722 
L 3463 178 
Q 3153 47 2828 -22 
Q 2503 -91 2169 -91 
Q 1331 -91 842 396 
Q 353 884 353 1716 
Q 353 2575 817 3079 
Q 1281 3584 2069 3584 
Q 2775 3584 3186 3129 
Q 3597 2675 3597 1894 
z
M 3022 2063 
Q 3016 2534 2758 2815 
Q 2500 3097 2075 3097 
Q 1594 3097 1305 2825 
Q 1016 2553 972 2059 
L 3022 2063 
z
" transform="scale(0.015625)"/>
       <path id="DejaVuSans-6c" d="M 603 4863 
L 1178 4863 
L 1178 0 
L 603 0 
L 603 4863 
z
" transform="scale(0.015625)"/>
       <path id="DejaVuSans-5f" d="M 3263 -1063 
L 3263 -1509 
L -63 -1509 
L -63 -1063 
L 3263 -1063 
z
" transform="scale(0.015625)"/>
       <path id="DejaVuSans-76" d="M 191 3500 
L 800 3500 
L 1894 563 
L 2988 3500 
L 3597 3500 
L 2284 0 
L 1503 0 
L 191 3500 
z
" transform="scale(0.015625)"/>
       <path id="DejaVuSans-6f" d="M 1959 3097 
Q 1497 3097 1228 2736 
Q 959 2375 959 1747 
Q 959 1119 1226 758 
Q 1494 397 1959 397 
Q 2419 397 2687 759 
Q 2956 1122 2956 1747 
Q 2956 2369 2687 2733 
Q 2419 3097 1959 3097 
z
M 1959 3584 
Q 2709 3584 3137 3096 
Q 3566 2609 3566 1747 
Q 3566 888 3137 398 
Q 2709 -91 1959 -91 
Q 1206 -91 779 398 
Q 353 888 353 1747 
Q 353 2609 779 3096 
Q 1206 3584 1959 3584 
z
" transform="scale(0.015625)"/>
       <path id="DejaVuSans-63" d="M 3122 3366 
L 3122 2828 
Q 2878 2963 2633 3030 
Q 2388 3097 2138 3097 
Q 1578 3097 1268 2742 
Q 959 2388 959 1747 
Q 959 1106 1268 751 
Q 1578 397 2138 397 
Q 2388 397 2633 464 
Q 2878 531 3122 666 
L 3122 134 
Q 2881 22 2623 -34 
Q 2366 -91 2075 -91 
Q 1284 -91 818 406 
Q 353 903 353 1747 
Q 353 2603 823 3093 
Q 1294 3584 2113 3584 
Q 2378 3584 2631 3529 
Q 2884 3475 3122 3366 
z
" transform="scale(0.015625)"/>
       <path id="DejaVuSans-69" d="M 603 3500 
L 1178 3500 
L 1178 0 
L 603 0 
L 603 3500 
z
M 603 4863 
L 1178 4863 
L 1178 4134 
L 603 4134 
L 603 4863 
z
" transform="scale(0.015625)"/>
       <path id="DejaVuSans-74" d="M 1172 4494 
L 1172 3500 
L 2356 3500 
L 2356 3053 
L 1172 3053 
L 1172 1153 
Q 1172 725 1289 603 
Q 1406 481 1766 481 
L 2356 481 
L 2356 0 
L 1766 0 
Q 1100 0 847 248 
Q 594 497 594 1153 
L 594 3053 
L 172 3053 
L 172 3500 
L 594 3500 
L 594 4494 
L 1172 4494 
z
" transform="scale(0.015625)"/>
       <path id="DejaVuSans-79" d="M 2059 -325 
Q 1816 -950 1584 -1140 
Q 1353 -1331 966 -1331 
L 506 -1331 
L 506 -850 
L 844 -850 
Q 1081 -850 1212 -737 
Q 1344 -625 1503 -206 
L 1606 56 
L 191 3500 
L 800 3500 
L 1894 763 
L 2988 3500 
L 3597 3500 
L 2059 -325 
z
" transform="scale(0.015625)"/>
      </defs>
      <use xlink:href="#DejaVuSans-77"/>
      <use xlink:href="#DejaVuSans-68" x="81.787109"/>
      <use xlink:href="#DejaVuSans-65" x="145.166016"/>
      <use xlink:href="#DejaVuSans-65" x="206.689453"/>
      <use xlink:href="#DejaVuSans-6c" x="268.212891"/>
      <use xlink:href="#DejaVuSans-5f" x="295.996094"/>
      <use xlink:href="#DejaVuSans-76" x="345.996094"/>
      <use xlink:href="#DejaVuSans-65" x="405.175781"/>
      <use xlink:href="#DejaVuSans-6c" x="466.699219"/>
      <use xlink:href="#DejaVuSans-6f" x="494.482422"/>
      <use xlink:href="#DejaVuSans-63" x="555.664062"/>
      <use xlink:href="#DejaVuSans-69" x="610.644531"/>
      <use xlink:href="#DejaVuSans-74" x="638.427734"/>
      <use xlink:href="#DejaVuSans-79" x="677.636719"/>
      <use xlink:href="#DejaVuSans-31" x="736.816406"/>
     </g>
    </g>
    <g id="line2d_11">
     <path d="M 107.530137 48.669158 
L 117.530137 48.669158 
L 127.530137 48.669158 
" style="fill: none; stroke: #ff7f0e; stroke-width: 1.5; stroke-linecap: square"/>
    </g>
    <g id="text_9">
     <!-- wheel_velocity2 -->
     <g transform="translate(135.530137 52.169158)scale(0.1 -0.1)">
      <use xlink:href="#DejaVuSans-77"/>
      <use xlink:href="#DejaVuSans-68" x="81.787109"/>
      <use xlink:href="#DejaVuSans-65" x="145.166016"/>
      <use xlink:href="#DejaVuSans-65" x="206.689453"/>
      <use xlink:href="#DejaVuSans-6c" x="268.212891"/>
      <use xlink:href="#DejaVuSans-5f" x="295.996094"/>
      <use xlink:href="#DejaVuSans-76" x="345.996094"/>
      <use xlink:href="#DejaVuSans-65" x="405.175781"/>
      <use xlink:href="#DejaVuSans-6c" x="466.699219"/>
      <use xlink:href="#DejaVuSans-6f" x="494.482422"/>
      <use xlink:href="#DejaVuSans-63" x="555.664062"/>
      <use xlink:href="#DejaVuSans-69" x="610.644531"/>
      <use xlink:href="#DejaVuSans-74" x="638.427734"/>
      <use xlink:href="#DejaVuSans-79" x="677.636719"/>
      <use xlink:href="#DejaVuSans-32" x="736.816406"/>
     </g>
    </g>
   </g>
  </g>
  <g id="axes_2">
   <g id="patch_8">
    <path d="M 276.218449 106.385281 
L 455.804596 106.385281 
L 455.804596 20.61447 
L 276.218449 20.61447 
z
" style="fill: #ffffff"/>
   </g>
   <g id="matplotlib.axis_3">
    <g id="xtick_4">
     <g id="line2d_12">
      <g>
       <use xlink:href="#m5bb946ff4e" x="284.381455" y="106.385281" style="stroke: #000000; stroke-width: 0.8"/>
      </g>
     </g>
     <g id="text_10">
      <!-- 0 -->
      <g transform="translate(281.200205 120.983719)scale(0.1 -0.1)">
       <use xlink:href="#DejaVuSans-30"/>
      </g>
     </g>
    </g>
    <g id="xtick_5">
     <g id="line2d_13">
      <g>
       <use xlink:href="#m5bb946ff4e" x="349.947774" y="106.385281" style="stroke: #000000; stroke-width: 0.8"/>
      </g>
     </g>
     <g id="text_11">
      <!-- 100 -->
      <g transform="translate(340.404024 120.983719)scale(0.1 -0.1)">
       <use xlink:href="#DejaVuSans-31"/>
       <use xlink:href="#DejaVuSans-30" x="63.623047"/>
       <use xlink:href="#DejaVuSans-30" x="127.246094"/>
      </g>
     </g>
    </g>
    <g id="xtick_6">
     <g id="line2d_14">
      <g>
       <use xlink:href="#m5bb946ff4e" x="415.514093" y="106.385281" style="stroke: #000000; stroke-width: 0.8"/>
      </g>
     </g>
     <g id="text_12">
      <!-- 200 -->
      <g transform="translate(405.970343 120.983719)scale(0.1 -0.1)">
       <use xlink:href="#DejaVuSans-32"/>
       <use xlink:href="#DejaVuSans-30" x="63.623047"/>
       <use xlink:href="#DejaVuSans-30" x="127.246094"/>
      </g>
     </g>
    </g>
   </g>
   <g id="matplotlib.axis_4">
    <g id="ytick_5">
     <g id="line2d_15">
      <g>
       <use xlink:href="#m6abb43252e" x="276.218449" y="105.13521" style="stroke: #000000; stroke-width: 0.8"/>
      </g>
     </g>
     <g id="text_13">
      <!-- −0.05 -->
      <g transform="translate(238.573136 108.934429)scale(0.1 -0.1)">
       <defs>
        <path id="DejaVuSans-2212" d="M 678 2272 
L 4684 2272 
L 4684 1741 
L 678 1741 
L 678 2272 
z
" transform="scale(0.015625)"/>
       </defs>
       <use xlink:href="#DejaVuSans-2212"/>
       <use xlink:href="#DejaVuSans-30" x="83.789062"/>
       <use xlink:href="#DejaVuSans-2e" x="147.412109"/>
       <use xlink:href="#DejaVuSans-30" x="179.199219"/>
       <use xlink:href="#DejaVuSans-35" x="242.822266"/>
      </g>
     </g>
    </g>
    <g id="ytick_6">
     <g id="line2d_16">
      <g>
       <use xlink:href="#m6abb43252e" x="276.218449" y="76.813972" style="stroke: #000000; stroke-width: 0.8"/>
      </g>
     </g>
     <g id="text_14">
      <!-- 0.00 -->
      <g transform="translate(246.952824 80.613191)scale(0.1 -0.1)">
       <use xlink:href="#DejaVuSans-30"/>
       <use xlink:href="#DejaVuSans-2e" x="63.623047"/>
       <use xlink:href="#DejaVuSans-30" x="95.410156"/>
       <use xlink:href="#DejaVuSans-30" x="159.033203"/>
      </g>
     </g>
    </g>
    <g id="ytick_7">
     <g id="line2d_17">
      <g>
       <use xlink:href="#m6abb43252e" x="276.218449" y="48.492735" style="stroke: #000000; stroke-width: 0.8"/>
      </g>
     </g>
     <g id="text_15">
      <!-- 0.05 -->
      <g transform="translate(246.952824 52.291954)scale(0.1 -0.1)">
       <use xlink:href="#DejaVuSans-30"/>
       <use xlink:href="#DejaVuSans-2e" x="63.623047"/>
       <use xlink:href="#DejaVuSans-30" x="95.410156"/>
       <use xlink:href="#DejaVuSans-35" x="159.033203"/>
      </g>
     </g>
    </g>
   </g>
   <g id="line2d_18">
    <path d="M 284.381455 24.513143 
L 447.641589 24.513143 
L 447.641589 24.513143 
" clip-path="url(#pfecce1949c)" style="fill: none; stroke: #1f77b4; stroke-width: 1.5; stroke-linecap: square"/>
   </g>
   <g id="line2d_19">
    <path d="M 284.381455 102.486608 
L 447.641589 102.486608 
L 447.641589 102.486608 
" clip-path="url(#pfecce1949c)" style="fill: none; stroke: #ff7f0e; stroke-width: 1.5; stroke-linecap: square"/>
   </g>
   <g id="patch_9">
    <path d="M 276.218449 106.385281 
L 276.218449 20.61447 
" style="fill: none; stroke: #000000; stroke-width: 0.8; stroke-linejoin: miter; stroke-linecap: square"/>
   </g>
   <g id="patch_10">
    <path d="M 455.804596 106.385281 
L 455.804596 20.61447 
" style="fill: none; stroke: #000000; stroke-width: 0.8; stroke-linejoin: miter; stroke-linecap: square"/>
   </g>
   <g id="patch_11">
    <path d="M 276.218449 106.385281 
L 455.804596 106.385281 
" style="fill: none; stroke: #000000; stroke-width: 0.8; stroke-linejoin: miter; stroke-linecap: square"/>
   </g>
   <g id="patch_12">
    <path d="M 276.218449 20.61447 
L 455.804596 20.61447 
" style="fill: none; stroke: #000000; stroke-width: 0.8; stroke-linejoin: miter; stroke-linecap: square"/>
   </g>
   <g id="legend_2">
    <g id="patch_13">
     <path d="M 339.773346 58.52697 
L 448.804596 58.52697 
Q 450.804596 58.52697 450.804596 56.52697 
L 450.804596 27.61447 
Q 450.804596 25.61447 448.804596 25.61447 
L 339.773346 25.61447 
Q 337.773346 25.61447 337.773346 27.61447 
L 337.773346 56.52697 
Q 337.773346 58.52697 339.773346 58.52697 
z
" style="fill: #ffffff; opacity: 0.8; stroke: #cccccc; stroke-linejoin: miter"/>
    </g>
    <g id="line2d_20">
     <path d="M 341.773346 33.712908 
L 351.773346 33.712908 
L 361.773346 33.712908 
" style="fill: none; stroke: #1f77b4; stroke-width: 1.5; stroke-linecap: square"/>
    </g>
    <g id="text_16">
     <!-- wheel_current1 -->
     <g transform="translate(369.773346 37.212908)scale(0.1 -0.1)">
      <defs>
       <path id="DejaVuSans-75" d="M 544 1381 
L 544 3500 
L 1119 3500 
L 1119 1403 
Q 1119 906 1312 657 
Q 1506 409 1894 409 
Q 2359 409 2629 706 
Q 2900 1003 2900 1516 
L 2900 3500 
L 3475 3500 
L 3475 0 
L 2900 0 
L 2900 538 
Q 2691 219 2414 64 
Q 2138 -91 1772 -91 
Q 1169 -91 856 284 
Q 544 659 544 1381 
z
M 1991 3584 
L 1991 3584 
z
" transform="scale(0.015625)"/>
       <path id="DejaVuSans-72" d="M 2631 2963 
Q 2534 3019 2420 3045 
Q 2306 3072 2169 3072 
Q 1681 3072 1420 2755 
Q 1159 2438 1159 1844 
L 1159 0 
L 581 0 
L 581 3500 
L 1159 3500 
L 1159 2956 
Q 1341 3275 1631 3429 
Q 1922 3584 2338 3584 
Q 2397 3584 2469 3576 
Q 2541 3569 2628 3553 
L 2631 2963 
z
" transform="scale(0.015625)"/>
       <path id="DejaVuSans-6e" d="M 3513 2113 
L 3513 0 
L 2938 0 
L 2938 2094 
Q 2938 2591 2744 2837 
Q 2550 3084 2163 3084 
Q 1697 3084 1428 2787 
Q 1159 2491 1159 1978 
L 1159 0 
L 581 0 
L 581 3500 
L 1159 3500 
L 1159 2956 
Q 1366 3272 1645 3428 
Q 1925 3584 2291 3584 
Q 2894 3584 3203 3211 
Q 3513 2838 3513 2113 
z
" transform="scale(0.015625)"/>
      </defs>
      <use xlink:href="#DejaVuSans-77"/>
      <use xlink:href="#DejaVuSans-68" x="81.787109"/>
      <use xlink:href="#DejaVuSans-65" x="145.166016"/>
      <use xlink:href="#DejaVuSans-65" x="206.689453"/>
      <use xlink:href="#DejaVuSans-6c" x="268.212891"/>
      <use xlink:href="#DejaVuSans-5f" x="295.996094"/>
      <use xlink:href="#DejaVuSans-63" x="345.996094"/>
      <use xlink:href="#DejaVuSans-75" x="400.976562"/>
      <use xlink:href="#DejaVuSans-72" x="464.355469"/>
      <use xlink:href="#DejaVuSans-72" x="503.71875"/>
      <use xlink:href="#DejaVuSans-65" x="542.582031"/>
      <use xlink:href="#DejaVuSans-6e" x="604.105469"/>
      <use xlink:href="#DejaVuSans-74" x="667.484375"/>
      <use xlink:href="#DejaVuSans-31" x="706.693359"/>
     </g>
    </g>
    <g id="line2d_21">
     <path d="M 341.773346 48.669158 
L 351.773346 48.669158 
L 361.773346 48.669158 
" style="fill: none; stroke: #ff7f0e; stroke-width: 1.5; stroke-linecap: square"/>
    </g>
    <g id="text_17">
     <!-- wheel_current2 -->
     <g transform="translate(369.773346 52.169158)scale(0.1 -0.1)">
      <use xlink:href="#DejaVuSans-77"/>
      <use xlink:href="#DejaVuSans-68" x="81.787109"/>
      <use xlink:href="#DejaVuSans-65" x="145.166016"/>
      <use xlink:href="#DejaVuSans-65" x="206.689453"/>
      <use xlink:href="#DejaVuSans-6c" x="268.212891"/>
      <use xlink:href="#DejaVuSans-5f" x="295.996094"/>
      <use xlink:href="#DejaVuSans-63" x="345.996094"/>
      <use xlink:href="#DejaVuSans-75" x="400.976562"/>
      <use xlink:href="#DejaVuSans-72" x="464.355469"/>
      <use xlink:href="#DejaVuSans-72" x="503.71875"/>
      <use xlink:href="#DejaVuSans-65" x="542.582031"/>
      <use xlink:href="#DejaVuSans-6e" x="604.105469"/>
      <use xlink:href="#DejaVuSans-74" x="667.484375"/>
      <use xlink:href="#DejaVuSans-32" x="706.693359"/>
     </g>
    </g>
   </g>
  </g>
  <g id="axes_3">
   <g id="patch_14">
    <path d="M 44.990865 217.472219 
L 224.577012 217.472219 
L 224.577012 131.701408 
L 44.990865 131.701408 
z
" style="fill: #ffffff"/>
   </g>
   <g id="matplotlib.axis_5">
    <g id="xtick_7">
     <g id="line2d_22">
      <g>
       <use xlink:href="#m5bb946ff4e" x="53.153872" y="217.472219" style="stroke: #000000; stroke-width: 0.8"/>
      </g>
     </g>
     <g id="text_18">
      <!-- 0 -->
      <g transform="translate(49.972622 232.070656)scale(0.1 -0.1)">
       <use xlink:href="#DejaVuSans-30"/>
      </g>
     </g>
    </g>
    <g id="xtick_8">
     <g id="line2d_23">
      <g>
       <use xlink:href="#m5bb946ff4e" x="118.72019" y="217.472219" style="stroke: #000000; stroke-width: 0.8"/>
      </g>
     </g>
     <g id="text_19">
      <!-- 100 -->
      <g transform="translate(109.17644 232.070656)scale(0.1 -0.1)">
       <use xlink:href="#DejaVuSans-31"/>
       <use xlink:href="#DejaVuSans-30" x="63.623047"/>
       <use xlink:href="#DejaVuSans-30" x="127.246094"/>
      </g>
     </g>
    </g>
    <g id="xtick_9">
     <g id="line2d_24">
      <g>
       <use xlink:href="#m5bb946ff4e" x="184.286509" y="217.472219" style="stroke: #000000; stroke-width: 0.8"/>
      </g>
     </g>
     <g id="text_20">
      <!-- 200 -->
      <g transform="translate(174.742759 232.070656)scale(0.1 -0.1)">
       <use xlink:href="#DejaVuSans-32"/>
       <use xlink:href="#DejaVuSans-30" x="63.623047"/>
       <use xlink:href="#DejaVuSans-30" x="127.246094"/>
      </g>
     </g>
    </g>
   </g>
   <g id="matplotlib.axis_6">
    <g id="ytick_8">
     <g id="line2d_25">
      <g>
       <use xlink:href="#m6abb43252e" x="44.990865" y="209.91244" style="stroke: #000000; stroke-width: 0.8"/>
      </g>
     </g>
     <g id="text_21">
      <!-- −0.06 -->
      <g transform="translate(7.345552 213.711659)scale(0.1 -0.1)">
       <defs>
        <path id="DejaVuSans-36" d="M 2113 2584 
Q 1688 2584 1439 2293 
Q 1191 2003 1191 1497 
Q 1191 994 1439 701 
Q 1688 409 2113 409 
Q 2538 409 2786 701 
Q 3034 994 3034 1497 
Q 3034 2003 2786 2293 
Q 2538 2584 2113 2584 
z
M 3366 4563 
L 3366 3988 
Q 3128 4100 2886 4159 
Q 2644 4219 2406 4219 
Q 1781 4219 1451 3797 
Q 1122 3375 1075 2522 
Q 1259 2794 1537 2939 
Q 1816 3084 2150 3084 
Q 2853 3084 3261 2657 
Q 3669 2231 3669 1497 
Q 3669 778 3244 343 
Q 2819 -91 2113 -91 
Q 1303 -91 875 529 
Q 447 1150 447 2328 
Q 447 3434 972 4092 
Q 1497 4750 2381 4750 
Q 2619 4750 2861 4703 
Q 3103 4656 3366 4563 
z
" transform="scale(0.015625)"/>
       </defs>
       <use xlink:href="#DejaVuSans-2212"/>
       <use xlink:href="#DejaVuSans-30" x="83.789062"/>
       <use xlink:href="#DejaVuSans-2e" x="147.412109"/>
       <use xlink:href="#DejaVuSans-30" x="179.199219"/>
       <use xlink:href="#DejaVuSans-36" x="242.822266"/>
      </g>
     </g>
    </g>
    <g id="ytick_9">
     <g id="line2d_26">
      <g>
       <use xlink:href="#m6abb43252e" x="44.990865" y="184.229481" style="stroke: #000000; stroke-width: 0.8"/>
      </g>
     </g>
     <g id="text_22">
      <!-- −0.04 -->
      <g transform="translate(7.345552 188.028699)scale(0.1 -0.1)">
       <defs>
        <path id="DejaVuSans-34" d="M 2419 4116 
L 825 1625 
L 2419 1625 
L 2419 4116 
z
M 2253 4666 
L 3047 4666 
L 3047 1625 
L 3713 1625 
L 3713 1100 
L 3047 1100 
L 3047 0 
L 2419 0 
L 2419 1100 
L 313 1100 
L 313 1709 
L 2253 4666 
z
" transform="scale(0.015625)"/>
       </defs>
       <use xlink:href="#DejaVuSans-2212"/>
       <use xlink:href="#DejaVuSans-30" x="83.789062"/>
       <use xlink:href="#DejaVuSans-2e" x="147.412109"/>
       <use xlink:href="#DejaVuSans-30" x="179.199219"/>
       <use xlink:href="#DejaVuSans-34" x="242.822266"/>
      </g>
     </g>
    </g>
    <g id="ytick_10">
     <g id="line2d_27">
      <g>
       <use xlink:href="#m6abb43252e" x="44.990865" y="158.546521" style="stroke: #000000; stroke-width: 0.8"/>
      </g>
     </g>
     <g id="text_23">
      <!-- −0.02 -->
      <g transform="translate(7.345552 162.34574)scale(0.1 -0.1)">
       <use xlink:href="#DejaVuSans-2212"/>
       <use xlink:href="#DejaVuSans-30" x="83.789062"/>
       <use xlink:href="#DejaVuSans-2e" x="147.412109"/>
       <use xlink:href="#DejaVuSans-30" x="179.199219"/>
       <use xlink:href="#DejaVuSans-32" x="242.822266"/>
      </g>
     </g>
    </g>
    <g id="ytick_11">
     <g id="line2d_28">
      <g>
       <use xlink:href="#m6abb43252e" x="44.990865" y="132.863562" style="stroke: #000000; stroke-width: 0.8"/>
      </g>
     </g>
     <g id="text_24">
      <!-- 0.00 -->
      <g transform="translate(15.72524 136.662781)scale(0.1 -0.1)">
       <use xlink:href="#DejaVuSans-30"/>
       <use xlink:href="#DejaVuSans-2e" x="63.623047"/>
       <use xlink:href="#DejaVuSans-30" x="95.410156"/>
       <use xlink:href="#DejaVuSans-30" x="159.033203"/>
      </g>
     </g>
    </g>
   </g>
   <g id="line2d_29">
    <path d="M 53.153872 213.573546 
L 216.414005 213.573546 
L 216.414005 213.573546 
" clip-path="url(#p867924e0de)" style="fill: none; stroke: #1f77b4; stroke-width: 1.5; stroke-linecap: square"/>
   </g>
   <g id="line2d_30">
    <path d="M 53.153872 135.600081 
L 216.414005 135.600081 
L 216.414005 135.600081 
" clip-path="url(#p867924e0de)" style="fill: none; stroke: #ff7f0e; stroke-width: 1.5; stroke-linecap: square"/>
   </g>
   <g id="line2d_31">
    <path d="M 53.153872 172.534745 
L 216.414005 172.534745 
L 216.414005 172.534745 
" clip-path="url(#p867924e0de)" style="fill: none; stroke: #2ca02c; stroke-width: 1.5; stroke-linecap: square"/>
   </g>
   <g id="patch_15">
    <path d="M 44.990865 217.472219 
L 44.990865 131.701408 
" style="fill: none; stroke: #000000; stroke-width: 0.8; stroke-linejoin: miter; stroke-linecap: square"/>
   </g>
   <g id="patch_16">
    <path d="M 224.577012 217.472219 
L 224.577012 131.701408 
" style="fill: none; stroke: #000000; stroke-width: 0.8; stroke-linejoin: miter; stroke-linecap: square"/>
   </g>
   <g id="patch_17">
    <path d="M 44.990865 217.472219 
L 224.577012 217.472219 
" style="fill: none; stroke: #000000; stroke-width: 0.8; stroke-linejoin: miter; stroke-linecap: square"/>
   </g>
   <g id="patch_18">
    <path d="M 44.990865 131.701408 
L 224.577012 131.701408 
" style="fill: none; stroke: #000000; stroke-width: 0.8; stroke-linejoin: miter; stroke-linecap: square"/>
   </g>
   <g id="legend_3">
    <g id="patch_19">
     <path d="M 87.619199 183.735783 
L 217.577012 183.735783 
Q 219.577012 183.735783 219.577012 181.735783 
L 219.577012 138.701408 
Q 219.577012 136.701408 217.577012 136.701408 
L 87.619199 136.701408 
Q 85.619199 136.701408 85.619199 138.701408 
L 85.619199 181.735783 
Q 85.619199 183.735783 87.619199 183.735783 
z
" style="fill: #ffffff; opacity: 0.8; stroke: #cccccc; stroke-linejoin: miter"/>
    </g>
    <g id="line2d_32">
     <path d="M 89.619199 144.799845 
L 99.619199 144.799845 
L 109.619199 144.799845 
" style="fill: none; stroke: #1f77b4; stroke-width: 1.5; stroke-linecap: square"/>
    </g>
    <g id="text_25">
     <!-- Angular velcoity - X -->
     <g transform="translate(117.619199 148.299845)scale(0.1 -0.1)">
      <defs>
       <path id="DejaVuSans-41" d="M 2188 4044 
L 1331 1722 
L 3047 1722 
L 2188 4044 
z
M 1831 4666 
L 2547 4666 
L 4325 0 
L 3669 0 
L 3244 1197 
L 1141 1197 
L 716 0 
L 50 0 
L 1831 4666 
z
" transform="scale(0.015625)"/>
       <path id="DejaVuSans-67" d="M 2906 1791 
Q 2906 2416 2648 2759 
Q 2391 3103 1925 3103 
Q 1463 3103 1205 2759 
Q 947 2416 947 1791 
Q 947 1169 1205 825 
Q 1463 481 1925 481 
Q 2391 481 2648 825 
Q 2906 1169 2906 1791 
z
M 3481 434 
Q 3481 -459 3084 -895 
Q 2688 -1331 1869 -1331 
Q 1566 -1331 1297 -1286 
Q 1028 -1241 775 -1147 
L 775 -588 
Q 1028 -725 1275 -790 
Q 1522 -856 1778 -856 
Q 2344 -856 2625 -561 
Q 2906 -266 2906 331 
L 2906 616 
Q 2728 306 2450 153 
Q 2172 0 1784 0 
Q 1141 0 747 490 
Q 353 981 353 1791 
Q 353 2603 747 3093 
Q 1141 3584 1784 3584 
Q 2172 3584 2450 3431 
Q 2728 3278 2906 2969 
L 2906 3500 
L 3481 3500 
L 3481 434 
z
" transform="scale(0.015625)"/>
       <path id="DejaVuSans-61" d="M 2194 1759 
Q 1497 1759 1228 1600 
Q 959 1441 959 1056 
Q 959 750 1161 570 
Q 1363 391 1709 391 
Q 2188 391 2477 730 
Q 2766 1069 2766 1631 
L 2766 1759 
L 2194 1759 
z
M 3341 1997 
L 3341 0 
L 2766 0 
L 2766 531 
Q 2569 213 2275 61 
Q 1981 -91 1556 -91 
Q 1019 -91 701 211 
Q 384 513 384 1019 
Q 384 1609 779 1909 
Q 1175 2209 1959 2209 
L 2766 2209 
L 2766 2266 
Q 2766 2663 2505 2880 
Q 2244 3097 1772 3097 
Q 1472 3097 1187 3025 
Q 903 2953 641 2809 
L 641 3341 
Q 956 3463 1253 3523 
Q 1550 3584 1831 3584 
Q 2591 3584 2966 3190 
Q 3341 2797 3341 1997 
z
" transform="scale(0.015625)"/>
       <path id="DejaVuSans-20" transform="scale(0.015625)"/>
       <path id="DejaVuSans-2d" d="M 313 2009 
L 1997 2009 
L 1997 1497 
L 313 1497 
L 313 2009 
z
" transform="scale(0.015625)"/>
       <path id="DejaVuSans-58" d="M 403 4666 
L 1081 4666 
L 2241 2931 
L 3406 4666 
L 4084 4666 
L 2584 2425 
L 4184 0 
L 3506 0 
L 2194 1984 
L 872 0 
L 191 0 
L 1856 2491 
L 403 4666 
z
" transform="scale(0.015625)"/>
      </defs>
      <use xlink:href="#DejaVuSans-41"/>
      <use xlink:href="#DejaVuSans-6e" x="68.408203"/>
      <use xlink:href="#DejaVuSans-67" x="131.787109"/>
      <use xlink:href="#DejaVuSans-75" x="195.263672"/>
      <use xlink:href="#DejaVuSans-6c" x="258.642578"/>
      <use xlink:href="#DejaVuSans-61" x="286.425781"/>
      <use xlink:href="#DejaVuSans-72" x="347.705078"/>
      <use xlink:href="#DejaVuSans-20" x="388.818359"/>
      <use xlink:href="#DejaVuSans-76" x="420.605469"/>
      <use xlink:href="#DejaVuSans-65" x="479.785156"/>
      <use xlink:href="#DejaVuSans-6c" x="541.308594"/>
      <use xlink:href="#DejaVuSans-63" x="569.091797"/>
      <use xlink:href="#DejaVuSans-6f" x="624.072266"/>
      <use xlink:href="#DejaVuSans-69" x="685.253906"/>
      <use xlink:href="#DejaVuSans-74" x="713.037109"/>
      <use xlink:href="#DejaVuSans-79" x="752.246094"/>
      <use xlink:href="#DejaVuSans-20" x="811.425781"/>
      <use xlink:href="#DejaVuSans-2d" x="843.212891"/>
      <use xlink:href="#DejaVuSans-20" x="879.296875"/>
      <use xlink:href="#DejaVuSans-58" x="911.083984"/>
     </g>
    </g>
    <g id="line2d_33">
     <path d="M 89.619199 159.47797 
L 99.619199 159.47797 
L 109.619199 159.47797 
" style="fill: none; stroke: #ff7f0e; stroke-width: 1.5; stroke-linecap: square"/>
    </g>
    <g id="text_26">
     <!-- Angular velcoity - Y -->
     <g transform="translate(117.619199 162.97797)scale(0.1 -0.1)">
      <defs>
       <path id="DejaVuSans-59" d="M -13 4666 
L 666 4666 
L 1959 2747 
L 3244 4666 
L 3922 4666 
L 2272 2222 
L 2272 0 
L 1638 0 
L 1638 2222 
L -13 4666 
z
" transform="scale(0.015625)"/>
      </defs>
      <use xlink:href="#DejaVuSans-41"/>
      <use xlink:href="#DejaVuSans-6e" x="68.408203"/>
      <use xlink:href="#DejaVuSans-67" x="131.787109"/>
      <use xlink:href="#DejaVuSans-75" x="195.263672"/>
      <use xlink:href="#DejaVuSans-6c" x="258.642578"/>
      <use xlink:href="#DejaVuSans-61" x="286.425781"/>
      <use xlink:href="#DejaVuSans-72" x="347.705078"/>
      <use xlink:href="#DejaVuSans-20" x="388.818359"/>
      <use xlink:href="#DejaVuSans-76" x="420.605469"/>
      <use xlink:href="#DejaVuSans-65" x="479.785156"/>
      <use xlink:href="#DejaVuSans-6c" x="541.308594"/>
      <use xlink:href="#DejaVuSans-63" x="569.091797"/>
      <use xlink:href="#DejaVuSans-6f" x="624.072266"/>
      <use xlink:href="#DejaVuSans-69" x="685.253906"/>
      <use xlink:href="#DejaVuSans-74" x="713.037109"/>
      <use xlink:href="#DejaVuSans-79" x="752.246094"/>
      <use xlink:href="#DejaVuSans-20" x="811.425781"/>
      <use xlink:href="#DejaVuSans-2d" x="843.212891"/>
      <use xlink:href="#DejaVuSans-20" x="879.296875"/>
      <use xlink:href="#DejaVuSans-59" x="911.083984"/>
     </g>
    </g>
    <g id="line2d_34">
     <path d="M 89.619199 174.156095 
L 99.619199 174.156095 
L 109.619199 174.156095 
" style="fill: none; stroke: #2ca02c; stroke-width: 1.5; stroke-linecap: square"/>
    </g>
    <g id="text_27">
     <!-- Angular velcoity - Z -->
     <g transform="translate(117.619199 177.656095)scale(0.1 -0.1)">
      <defs>
       <path id="DejaVuSans-5a" d="M 359 4666 
L 4025 4666 
L 4025 4184 
L 1075 531 
L 4097 531 
L 4097 0 
L 288 0 
L 288 481 
L 3238 4134 
L 359 4134 
L 359 4666 
z
" transform="scale(0.015625)"/>
      </defs>
      <use xlink:href="#DejaVuSans-41"/>
      <use xlink:href="#DejaVuSans-6e" x="68.408203"/>
      <use xlink:href="#DejaVuSans-67" x="131.787109"/>
      <use xlink:href="#DejaVuSans-75" x="195.263672"/>
      <use xlink:href="#DejaVuSans-6c" x="258.642578"/>
      <use xlink:href="#DejaVuSans-61" x="286.425781"/>
      <use xlink:href="#DejaVuSans-72" x="347.705078"/>
      <use xlink:href="#DejaVuSans-20" x="388.818359"/>
      <use xlink:href="#DejaVuSans-76" x="420.605469"/>
      <use xlink:href="#DejaVuSans-65" x="479.785156"/>
      <use xlink:href="#DejaVuSans-6c" x="541.308594"/>
      <use xlink:href="#DejaVuSans-63" x="569.091797"/>
      <use xlink:href="#DejaVuSans-6f" x="624.072266"/>
      <use xlink:href="#DejaVuSans-69" x="685.253906"/>
      <use xlink:href="#DejaVuSans-74" x="713.037109"/>
      <use xlink:href="#DejaVuSans-79" x="752.246094"/>
      <use xlink:href="#DejaVuSans-20" x="811.425781"/>
      <use xlink:href="#DejaVuSans-2d" x="843.212891"/>
      <use xlink:href="#DejaVuSans-20" x="879.296875"/>
      <use xlink:href="#DejaVuSans-5a" x="911.083984"/>
     </g>
    </g>
   </g>
  </g>
  <g id="axes_4">
   <g id="patch_20">
    <path d="M 276.218449 217.472219 
L 455.804596 217.472219 
L 455.804596 131.701408 
L 276.218449 131.701408 
z
" style="fill: #ffffff"/>
   </g>
   <g id="matplotlib.axis_7">
    <g id="xtick_10">
     <g id="line2d_35">
      <g>
       <use xlink:href="#m5bb946ff4e" x="284.381455" y="217.472219" style="stroke: #000000; stroke-width: 0.8"/>
      </g>
     </g>
     <g id="text_28">
      <!-- 0 -->
      <g transform="translate(281.200205 232.070656)scale(0.1 -0.1)">
       <use xlink:href="#DejaVuSans-30"/>
      </g>
     </g>
    </g>
    <g id="xtick_11">
     <g id="line2d_36">
      <g>
       <use xlink:href="#m5bb946ff4e" x="349.947774" y="217.472219" style="stroke: #000000; stroke-width: 0.8"/>
      </g>
     </g>
     <g id="text_29">
      <!-- 100 -->
      <g transform="translate(340.404024 232.070656)scale(0.1 -0.1)">
       <use xlink:href="#DejaVuSans-31"/>
       <use xlink:href="#DejaVuSans-30" x="63.623047"/>
       <use xlink:href="#DejaVuSans-30" x="127.246094"/>
      </g>
     </g>
    </g>
    <g id="xtick_12">
     <g id="line2d_37">
      <g>
       <use xlink:href="#m5bb946ff4e" x="415.514093" y="217.472219" style="stroke: #000000; stroke-width: 0.8"/>
      </g>
     </g>
     <g id="text_30">
      <!-- 200 -->
      <g transform="translate(405.970343 232.070656)scale(0.1 -0.1)">
       <use xlink:href="#DejaVuSans-32"/>
       <use xlink:href="#DejaVuSans-30" x="63.623047"/>
       <use xlink:href="#DejaVuSans-30" x="127.246094"/>
      </g>
     </g>
    </g>
   </g>
   <g id="matplotlib.axis_8">
    <g id="ytick_12">
     <g id="line2d_38">
      <g>
       <use xlink:href="#m6abb43252e" x="276.218449" y="194.080281" style="stroke: #000000; stroke-width: 0.8"/>
      </g>
     </g>
     <g id="text_31">
      <!-- 0.0 -->
      <g transform="translate(253.315324 197.8795)scale(0.1 -0.1)">
       <use xlink:href="#DejaVuSans-30"/>
       <use xlink:href="#DejaVuSans-2e" x="63.623047"/>
       <use xlink:href="#DejaVuSans-30" x="95.410156"/>
      </g>
     </g>
    </g>
    <g id="ytick_13">
     <g id="line2d_39">
      <g>
       <use xlink:href="#m6abb43252e" x="276.218449" y="153.384531" style="stroke: #000000; stroke-width: 0.8"/>
      </g>
     </g>
     <g id="text_32">
      <!-- 0.1 -->
      <g transform="translate(253.315324 157.18375)scale(0.1 -0.1)">
       <use xlink:href="#DejaVuSans-30"/>
       <use xlink:href="#DejaVuSans-2e" x="63.623047"/>
       <use xlink:href="#DejaVuSans-31" x="95.410156"/>
      </g>
     </g>
    </g>
   </g>
   <g id="line2d_40">
    <path d="M 284.381455 151.194693 
L 447.641589 151.194693 
L 447.641589 151.194693 
" clip-path="url(#p7a9d32b7d4)" style="fill: none; stroke: #1f77b4; stroke-width: 1.5; stroke-linecap: square"/>
   </g>
   <g id="line2d_41">
    <path d="M 284.381455 135.600081 
L 447.641589 135.600081 
L 447.641589 135.600081 
" clip-path="url(#p7a9d32b7d4)" style="fill: none; stroke: #ff7f0e; stroke-width: 1.5; stroke-linecap: square"/>
   </g>
   <g id="line2d_42">
    <path d="M 284.381455 213.573546 
L 447.641589 213.573546 
L 447.641589 213.573546 
" clip-path="url(#p7a9d32b7d4)" style="fill: none; stroke: #2ca02c; stroke-width: 1.5; stroke-linecap: square"/>
   </g>
   <g id="patch_21">
    <path d="M 276.218449 217.472219 
L 276.218449 131.701408 
" style="fill: none; stroke: #000000; stroke-width: 0.8; stroke-linejoin: miter; stroke-linecap: square"/>
   </g>
   <g id="patch_22">
    <path d="M 455.804596 217.472219 
L 455.804596 131.701408 
" style="fill: none; stroke: #000000; stroke-width: 0.8; stroke-linejoin: miter; stroke-linecap: square"/>
   </g>
   <g id="patch_23">
    <path d="M 276.218449 217.472219 
L 455.804596 217.472219 
" style="fill: none; stroke: #000000; stroke-width: 0.8; stroke-linejoin: miter; stroke-linecap: square"/>
   </g>
   <g id="patch_24">
    <path d="M 276.218449 131.701408 
L 455.804596 131.701408 
" style="fill: none; stroke: #000000; stroke-width: 0.8; stroke-linejoin: miter; stroke-linecap: square"/>
   </g>
   <g id="legend_4">
    <g id="patch_25">
     <path d="M 283.218449 212.472219 
L 427.893449 212.472219 
Q 429.893449 212.472219 429.893449 210.472219 
L 429.893449 167.437844 
Q 429.893449 165.437844 427.893449 165.437844 
L 283.218449 165.437844 
Q 281.218449 165.437844 281.218449 167.437844 
L 281.218449 210.472219 
Q 281.218449 212.472219 283.218449 212.472219 
z
" style="fill: #ffffff; opacity: 0.8; stroke: #cccccc; stroke-linejoin: miter"/>
    </g>
    <g id="line2d_43">
     <path d="M 285.218449 173.536281 
L 295.218449 173.536281 
L 305.218449 173.536281 
" style="fill: none; stroke: #1f77b4; stroke-width: 1.5; stroke-linecap: square"/>
    </g>
    <g id="text_33">
     <!-- Linear acceleration - X -->
     <g transform="translate(313.218449 177.036281)scale(0.1 -0.1)">
      <defs>
       <path id="DejaVuSans-4c" d="M 628 4666 
L 1259 4666 
L 1259 531 
L 3531 531 
L 3531 0 
L 628 0 
L 628 4666 
z
" transform="scale(0.015625)"/>
      </defs>
      <use xlink:href="#DejaVuSans-4c"/>
      <use xlink:href="#DejaVuSans-69" x="55.712891"/>
      <use xlink:href="#DejaVuSans-6e" x="83.496094"/>
      <use xlink:href="#DejaVuSans-65" x="146.875"/>
      <use xlink:href="#DejaVuSans-61" x="208.398438"/>
      <use xlink:href="#DejaVuSans-72" x="269.677734"/>
      <use xlink:href="#DejaVuSans-20" x="310.791016"/>
      <use xlink:href="#DejaVuSans-61" x="342.578125"/>
      <use xlink:href="#DejaVuSans-63" x="403.857422"/>
      <use xlink:href="#DejaVuSans-63" x="458.837891"/>
      <use xlink:href="#DejaVuSans-65" x="513.818359"/>
      <use xlink:href="#DejaVuSans-6c" x="575.341797"/>
      <use xlink:href="#DejaVuSans-65" x="603.125"/>
      <use xlink:href="#DejaVuSans-72" x="664.648438"/>
      <use xlink:href="#DejaVuSans-61" x="705.761719"/>
      <use xlink:href="#DejaVuSans-74" x="767.041016"/>
      <use xlink:href="#DejaVuSans-69" x="806.25"/>
      <use xlink:href="#DejaVuSans-6f" x="834.033203"/>
      <use xlink:href="#DejaVuSans-6e" x="895.214844"/>
      <use xlink:href="#DejaVuSans-20" x="958.59375"/>
      <use xlink:href="#DejaVuSans-2d" x="990.380859"/>
      <use xlink:href="#DejaVuSans-20" x="1026.464844"/>
      <use xlink:href="#DejaVuSans-58" x="1058.251953"/>
     </g>
    </g>
    <g id="line2d_44">
     <path d="M 285.218449 188.214406 
L 295.218449 188.214406 
L 305.218449 188.214406 
" style="fill: none; stroke: #ff7f0e; stroke-width: 1.5; stroke-linecap: square"/>
    </g>
    <g id="text_34">
     <!-- Linear acceleration - Y -->
     <g transform="translate(313.218449 191.714406)scale(0.1 -0.1)">
      <use xlink:href="#DejaVuSans-4c"/>
      <use xlink:href="#DejaVuSans-69" x="55.712891"/>
      <use xlink:href="#DejaVuSans-6e" x="83.496094"/>
      <use xlink:href="#DejaVuSans-65" x="146.875"/>
      <use xlink:href="#DejaVuSans-61" x="208.398438"/>
      <use xlink:href="#DejaVuSans-72" x="269.677734"/>
      <use xlink:href="#DejaVuSans-20" x="310.791016"/>
      <use xlink:href="#DejaVuSans-61" x="342.578125"/>
      <use xlink:href="#DejaVuSans-63" x="403.857422"/>
      <use xlink:href="#DejaVuSans-63" x="458.837891"/>
      <use xlink:href="#DejaVuSans-65" x="513.818359"/>
      <use xlink:href="#DejaVuSans-6c" x="575.341797"/>
      <use xlink:href="#DejaVuSans-65" x="603.125"/>
      <use xlink:href="#DejaVuSans-72" x="664.648438"/>
      <use xlink:href="#DejaVuSans-61" x="705.761719"/>
      <use xlink:href="#DejaVuSans-74" x="767.041016"/>
      <use xlink:href="#DejaVuSans-69" x="806.25"/>
      <use xlink:href="#DejaVuSans-6f" x="834.033203"/>
      <use xlink:href="#DejaVuSans-6e" x="895.214844"/>
      <use xlink:href="#DejaVuSans-20" x="958.59375"/>
      <use xlink:href="#DejaVuSans-2d" x="990.380859"/>
      <use xlink:href="#DejaVuSans-20" x="1026.464844"/>
      <use xlink:href="#DejaVuSans-59" x="1058.251953"/>
     </g>
    </g>
    <g id="line2d_45">
     <path d="M 285.218449 202.892531 
L 295.218449 202.892531 
L 305.218449 202.892531 
" style="fill: none; stroke: #2ca02c; stroke-width: 1.5; stroke-linecap: square"/>
    </g>
    <g id="text_35">
     <!-- Linear acceleration - Z -->
     <g transform="translate(313.218449 206.392531)scale(0.1 -0.1)">
      <use xlink:href="#DejaVuSans-4c"/>
      <use xlink:href="#DejaVuSans-69" x="55.712891"/>
      <use xlink:href="#DejaVuSans-6e" x="83.496094"/>
      <use xlink:href="#DejaVuSans-65" x="146.875"/>
      <use xlink:href="#DejaVuSans-61" x="208.398438"/>
      <use xlink:href="#DejaVuSans-72" x="269.677734"/>
      <use xlink:href="#DejaVuSans-20" x="310.791016"/>
      <use xlink:href="#DejaVuSans-61" x="342.578125"/>
      <use xlink:href="#DejaVuSans-63" x="403.857422"/>
      <use xlink:href="#DejaVuSans-63" x="458.837891"/>
      <use xlink:href="#DejaVuSans-65" x="513.818359"/>
      <use xlink:href="#DejaVuSans-6c" x="575.341797"/>
      <use xlink:href="#DejaVuSans-65" x="603.125"/>
      <use xlink:href="#DejaVuSans-72" x="664.648438"/>
      <use xlink:href="#DejaVuSans-61" x="705.761719"/>
      <use xlink:href="#DejaVuSans-74" x="767.041016"/>
      <use xlink:href="#DejaVuSans-69" x="806.25"/>
      <use xlink:href="#DejaVuSans-6f" x="834.033203"/>
      <use xlink:href="#DejaVuSans-6e" x="895.214844"/>
      <use xlink:href="#DejaVuSans-20" x="958.59375"/>
      <use xlink:href="#DejaVuSans-2d" x="990.380859"/>
      <use xlink:href="#DejaVuSans-20" x="1026.464844"/>
      <use xlink:href="#DejaVuSans-5a" x="1058.251953"/>
     </g>
    </g>
   </g>
  </g>
  <g id="axes_5">
   <g id="patch_26">
    <path d="M 44.990865 325.921635 
L 455.804596 325.921635 
L 455.804596 240.150824 
L 44.990865 240.150824 
z
" style="fill: #ffffff"/>
   </g>
   <g id="matplotlib.axis_9">
    <g id="xtick_13">
     <g id="line2d_46">
      <g>
       <use xlink:href="#m5bb946ff4e" x="63.664216" y="325.921635" style="stroke: #000000; stroke-width: 0.8"/>
      </g>
     </g>
     <g id="text_36">
      <!-- 0 -->
      <g transform="translate(60.482966 340.520072)scale(0.1 -0.1)">
       <use xlink:href="#DejaVuSans-30"/>
      </g>
     </g>
    </g>
    <g id="xtick_14">
     <g id="line2d_47">
      <g>
       <use xlink:href="#m5bb946ff4e" x="138.657595" y="325.921635" style="stroke: #000000; stroke-width: 0.8"/>
      </g>
     </g>
     <g id="text_37">
      <!-- 50 -->
      <g transform="translate(132.295095 340.520072)scale(0.1 -0.1)">
       <use xlink:href="#DejaVuSans-35"/>
       <use xlink:href="#DejaVuSans-30" x="63.623047"/>
      </g>
     </g>
    </g>
    <g id="xtick_15">
     <g id="line2d_48">
      <g>
       <use xlink:href="#m5bb946ff4e" x="213.650975" y="325.921635" style="stroke: #000000; stroke-width: 0.8"/>
      </g>
     </g>
     <g id="text_38">
      <!-- 100 -->
      <g transform="translate(204.107225 340.520072)scale(0.1 -0.1)">
       <use xlink:href="#DejaVuSans-31"/>
       <use xlink:href="#DejaVuSans-30" x="63.623047"/>
       <use xlink:href="#DejaVuSans-30" x="127.246094"/>
      </g>
     </g>
    </g>
    <g id="xtick_16">
     <g id="line2d_49">
      <g>
       <use xlink:href="#m5bb946ff4e" x="288.644354" y="325.921635" style="stroke: #000000; stroke-width: 0.8"/>
      </g>
     </g>
     <g id="text_39">
      <!-- 150 -->
      <g transform="translate(279.100604 340.520072)scale(0.1 -0.1)">
       <use xlink:href="#DejaVuSans-31"/>
       <use xlink:href="#DejaVuSans-35" x="63.623047"/>
       <use xlink:href="#DejaVuSans-30" x="127.246094"/>
      </g>
     </g>
    </g>
    <g id="xtick_17">
     <g id="line2d_50">
      <g>
       <use xlink:href="#m5bb946ff4e" x="363.637733" y="325.921635" style="stroke: #000000; stroke-width: 0.8"/>
      </g>
     </g>
     <g id="text_40">
      <!-- 200 -->
      <g transform="translate(354.093983 340.520072)scale(0.1 -0.1)">
       <use xlink:href="#DejaVuSans-32"/>
       <use xlink:href="#DejaVuSans-30" x="63.623047"/>
       <use xlink:href="#DejaVuSans-30" x="127.246094"/>
      </g>
     </g>
    </g>
    <g id="xtick_18">
     <g id="line2d_51">
      <g>
       <use xlink:href="#m5bb946ff4e" x="438.631112" y="325.921635" style="stroke: #000000; stroke-width: 0.8"/>
      </g>
     </g>
     <g id="text_41">
      <!-- 250 -->
      <g transform="translate(429.087362 340.520072)scale(0.1 -0.1)">
       <use xlink:href="#DejaVuSans-32"/>
       <use xlink:href="#DejaVuSans-35" x="63.623047"/>
       <use xlink:href="#DejaVuSans-30" x="127.246094"/>
      </g>
     </g>
    </g>
   </g>
   <g id="matplotlib.axis_10">
    <g id="ytick_14">
     <g id="line2d_52">
      <g>
       <use xlink:href="#m6abb43252e" x="44.990865" y="305.015775" style="stroke: #000000; stroke-width: 0.8"/>
      </g>
     </g>
     <g id="text_42">
      <!-- 1.55 -->
      <g transform="translate(15.72524 308.814994)scale(0.1 -0.1)">
       <use xlink:href="#DejaVuSans-31"/>
       <use xlink:href="#DejaVuSans-2e" x="63.623047"/>
       <use xlink:href="#DejaVuSans-35" x="95.410156"/>
       <use xlink:href="#DejaVuSans-35" x="159.033203"/>
      </g>
     </g>
    </g>
    <g id="ytick_15">
     <g id="line2d_53">
      <g>
       <use xlink:href="#m6abb43252e" x="44.990865" y="278.407122" style="stroke: #000000; stroke-width: 0.8"/>
      </g>
     </g>
     <g id="text_43">
      <!-- 1.60 -->
      <g transform="translate(15.72524 282.206341)scale(0.1 -0.1)">
       <use xlink:href="#DejaVuSans-31"/>
       <use xlink:href="#DejaVuSans-2e" x="63.623047"/>
       <use xlink:href="#DejaVuSans-36" x="95.410156"/>
       <use xlink:href="#DejaVuSans-30" x="159.033203"/>
      </g>
     </g>
    </g>
    <g id="ytick_16">
     <g id="line2d_54">
      <g>
       <use xlink:href="#m6abb43252e" x="44.990865" y="251.798469" style="stroke: #000000; stroke-width: 0.8"/>
      </g>
     </g>
     <g id="text_44">
      <!-- 1.65 -->
      <g transform="translate(15.72524 255.597688)scale(0.1 -0.1)">
       <use xlink:href="#DejaVuSans-31"/>
       <use xlink:href="#DejaVuSans-2e" x="63.623047"/>
       <use xlink:href="#DejaVuSans-36" x="95.410156"/>
       <use xlink:href="#DejaVuSans-35" x="159.033203"/>
      </g>
     </g>
    </g>
   </g>
   <g id="line2d_55">
    <path d="M 63.664216 305.000874 
L 65.164084 305.00726 
L 66.663952 305.128596 
L 68.163819 305.868316 
L 69.663687 307.265271 
L 71.163554 309.210363 
L 72.663422 310.090577 
L 74.163289 309.624926 
L 75.663157 308.578674 
L 77.163025 307.775625 
L 78.662892 308.413168 
L 80.16276 309.58661 
L 81.662627 309.867065 
L 83.162495 309.408332 
L 86.16223 307.501023 
L 87.662098 306.818777 
L 90.661833 305.887475 
L 92.1617 304.529369 
L 95.161436 300.294336 
L 96.661303 297.672851 
L 98.161171 293.495825 
L 99.661038 288.922862 
L 102.660774 280.80403 
L 107.160376 265.714262 
L 108.660244 261.958185 
L 110.160111 259.196739 
L 111.659979 257.327747 
L 113.159847 256.511394 
L 114.659714 256.454451 
L 116.159582 256.856242 
L 120.659185 259.107334 
L 122.159052 259.394175 
L 126.658655 259.470808 
L 128.158522 259.11372 
L 129.65839 258.271822 
L 131.158258 257.283577 
L 132.658125 256.626343 
L 134.157993 256.536938 
L 135.65786 256.715748 
L 137.157728 256.69659 
L 138.657595 256.275641 
L 140.157463 255.344338 
L 141.657331 254.005391 
L 143.157198 252.391842 
L 144.657066 250.236009 
L 147.656801 245.229325 
L 149.156669 244.049497 
L 150.656536 245.912103 
L 152.156404 251.817627 
L 153.656271 261.658572 
L 155.156139 274.050221 
L 156.656006 284.146076 
L 158.155874 291.39108 
L 159.655742 296.920359 
L 164.155344 311.142684 
L 165.655212 312.781777 
L 170.154815 311.857392 
L 171.654682 311.270405 
L 174.654417 310.422121 
L 176.154285 310.249697 
L 177.654153 310.192755 
L 179.15402 310.307172 
L 182.153755 312.845637 
L 183.653623 314.79073 
L 185.153491 316.251545 
L 188.153226 321.379032 
L 189.653093 320.466888 
L 192.652828 316.034418 
L 194.152696 314.153187 
L 197.152431 309.727103 
L 200.152166 307.622359 
L 201.652034 306.15569 
L 203.151902 305.957721 
L 204.651769 304.943932 
L 206.151637 302.826415 
L 207.651504 298.304541 
L 209.151372 300.441215 
L 212.151107 299.541843 
L 213.650975 298.834053 
L 215.150842 298.291769 
L 216.65071 298.400332 
L 218.150577 296.780397 
L 219.650445 295.555867 
L 221.150312 294.063121 
L 222.65018 293.635786 
L 224.150048 291.397467 
L 225.649915 288.820685 
L 227.149783 287.194364 
L 228.64965 285.753239 
L 230.149518 283.030109 
L 233.149253 280.938137 
L 234.649121 281.001998 
L 236.148988 281.544282 
L 237.648856 281.288839 
L 239.148723 282.111579 
L 240.648591 283.820919 
L 242.148459 286.116713 
L 243.648326 289.560937 
L 246.648061 295.82355 
L 248.147929 300.281564 
L 249.647797 304.273926 
L 251.147664 308.681383 
L 252.647532 312.093145 
L 254.147399 314.631078 
L 255.647267 316.525614 
L 258.647002 318.489865 
L 260.14687 317.992283 
L 263.146605 317.762916 
L 264.646472 317.769303 
L 266.14634 316.761367 
L 267.646208 315.173362 
L 269.146075 312.3736 
L 270.645943 309.95647 
L 272.14581 308.043308 
L 273.645678 305.804988 
L 275.145545 304.803438 
L 276.645413 304.968944 
L 278.145281 305.855544 
L 279.645148 306.588879 
L 281.145016 306.837936 
L 282.644883 306.837936 
L 284.144751 306.665512 
L 285.644619 305.587861 
L 287.144486 305.294634 
L 288.644354 305.568703 
L 291.644089 305.434595 
L 293.143956 306.952885 
L 294.643824 307.851725 
L 296.143692 308.45787 
L 297.643559 308.515345 
L 299.143427 307.782011 
L 300.643294 307.513795 
L 302.143162 307.53934 
L 303.643029 307.807023 
L 305.142897 307.660675 
L 306.642765 307.660675 
L 308.142632 308.126327 
L 309.6425 308.814959 
L 311.142367 309.815976 
L 312.642235 310.66426 
L 314.142103 311.684968 
L 315.64197 313.126093 
L 318.641705 316.659722 
L 320.141573 318.974674 
L 323.141308 321.181596 
L 324.641176 321.876614 
L 326.141043 322.022962 
L 327.640911 321.372646 
L 329.140778 320.556293 
L 333.640381 318.955516 
L 335.140249 318.636745 
L 338.139984 317.635195 
L 339.639851 317.431373 
L 341.139719 317.622423 
L 342.639587 317.928422 
L 344.139454 317.322809 
L 345.639322 317.214246 
L 347.139189 317.405828 
L 348.639057 317.093443 
L 350.138925 317.131227 
L 351.638792 317.367512 
L 354.638527 316.442595 
L 356.138395 316.914633 
L 357.638262 317.845403 
L 359.13813 318.374915 
L 360.637998 318.585656 
L 362.137865 319.47811 
L 363.637733 320.128958 
L 365.1376 319.969838 
L 366.637468 320.186433 
L 368.137336 320.671242 
L 371.137071 318.509023 
L 372.636938 317.737372 
L 374.136806 318.056144 
L 375.636673 319.038535 
L 377.136541 319.650534 
L 378.636409 319.561129 
L 380.136276 320.116186 
L 381.636144 319.25513 
L 383.136011 317.782075 
L 387.635614 316.487298 
L 389.135482 317.004038 
L 390.635349 317.367512 
L 393.635084 318.515409 
L 395.134952 318.28551 
L 396.63482 318.406846 
L 398.134687 318.719231 
L 402.63429 318.566498 
L 404.134157 318.355757 
L 405.634025 318.477093 
L 407.133893 318.381302 
L 408.63376 317.833163 
L 411.633495 315.702875 
L 413.133363 314.48473 
L 416.133098 310.932475 
L 417.632966 310.166678 
L 419.132833 310.35826 
L 420.632701 310.772823 
L 423.632436 310.236925 
L 426.632171 310.192755 
L 428.132039 310.319944 
L 429.631906 310.13528 
L 432.631642 308.528117 
L 437.131244 304.78428 
L 437.131244 304.78428 
" clip-path="url(#pfc0370ae2f)" style="fill: none; stroke: #1f77b4; stroke-width: 1.5; stroke-linecap: square"/>
   </g>
   <g id="patch_27">
    <path d="M 44.990865 325.921635 
L 44.990865 240.150824 
" style="fill: none; stroke: #000000; stroke-width: 0.8; stroke-linejoin: miter; stroke-linecap: square"/>
   </g>
   <g id="patch_28">
    <path d="M 455.804596 325.921635 
L 455.804596 240.150824 
" style="fill: none; stroke: #000000; stroke-width: 0.8; stroke-linejoin: miter; stroke-linecap: square"/>
   </g>
   <g id="patch_29">
    <path d="M 44.990865 325.921635 
L 455.804596 325.921635 
" style="fill: none; stroke: #000000; stroke-width: 0.8; stroke-linejoin: miter; stroke-linecap: square"/>
   </g>
   <g id="patch_30">
    <path d="M 44.990865 240.150824 
L 455.804596 240.150824 
" style="fill: none; stroke: #000000; stroke-width: 0.8; stroke-linejoin: miter; stroke-linecap: square"/>
   </g>
   <g id="legend_5">
    <g id="patch_31">
     <path d="M 361.340533 262.828949 
L 448.804596 262.828949 
Q 450.804596 262.828949 450.804596 260.828949 
L 450.804596 247.150824 
Q 450.804596 245.150824 448.804596 245.150824 
L 361.340533 245.150824 
Q 359.340533 245.150824 359.340533 247.150824 
L 359.340533 260.828949 
Q 359.340533 262.828949 361.340533 262.828949 
z
" style="fill: #ffffff; opacity: 0.8; stroke: #cccccc; stroke-linejoin: miter"/>
    </g>
    <g id="line2d_56">
     <path d="M 363.340533 253.249261 
L 373.340533 253.249261 
L 383.340533 253.249261 
" style="fill: none; stroke: #1f77b4; stroke-width: 1.5; stroke-linecap: square"/>
    </g>
    <g id="text_45">
     <!-- Pivot angle -->
     <g transform="translate(391.340533 256.749261)scale(0.1 -0.1)">
      <defs>
       <path id="DejaVuSans-50" d="M 1259 4147 
L 1259 2394 
L 2053 2394 
Q 2494 2394 2734 2622 
Q 2975 2850 2975 3272 
Q 2975 3691 2734 3919 
Q 2494 4147 2053 4147 
L 1259 4147 
z
M 628 4666 
L 2053 4666 
Q 2838 4666 3239 4311 
Q 3641 3956 3641 3272 
Q 3641 2581 3239 2228 
Q 2838 1875 2053 1875 
L 1259 1875 
L 1259 0 
L 628 0 
L 628 4666 
z
" transform="scale(0.015625)"/>
      </defs>
      <use xlink:href="#DejaVuSans-50"/>
      <use xlink:href="#DejaVuSans-69" x="58.052734"/>
      <use xlink:href="#DejaVuSans-76" x="85.835938"/>
      <use xlink:href="#DejaVuSans-6f" x="145.015625"/>
      <use xlink:href="#DejaVuSans-74" x="206.197266"/>
      <use xlink:href="#DejaVuSans-20" x="245.40625"/>
      <use xlink:href="#DejaVuSans-61" x="277.193359"/>
      <use xlink:href="#DejaVuSans-6e" x="338.472656"/>
      <use xlink:href="#DejaVuSans-67" x="401.851562"/>
      <use xlink:href="#DejaVuSans-6c" x="465.328125"/>
      <use xlink:href="#DejaVuSans-65" x="493.111328"/>
     </g>
    </g>
   </g>
  </g>
  <g id="text_46">
   <!-- Wheel unit - 0 -->
   <g transform="translate(188.2875 12.118365)scale(0.12 -0.12)">
    <defs>
     <path id="DejaVuSans-57" d="M 213 4666 
L 850 4666 
L 1831 722 
L 2809 4666 
L 3519 4666 
L 4500 722 
L 5478 4666 
L 6119 4666 
L 4947 0 
L 4153 0 
L 3169 4050 
L 2175 0 
L 1381 0 
L 213 4666 
z
" transform="scale(0.015625)"/>
    </defs>
    <use xlink:href="#DejaVuSans-57"/>
    <use xlink:href="#DejaVuSans-68" x="98.876953"/>
    <use xlink:href="#DejaVuSans-65" x="162.255859"/>
    <use xlink:href="#DejaVuSans-65" x="223.779297"/>
    <use xlink:href="#DejaVuSans-6c" x="285.302734"/>
    <use xlink:href="#DejaVuSans-20" x="313.085938"/>
    <use xlink:href="#DejaVuSans-75" x="344.873047"/>
    <use xlink:href="#DejaVuSans-6e" x="408.251953"/>
    <use xlink:href="#DejaVuSans-69" x="471.630859"/>
    <use xlink:href="#DejaVuSans-74" x="499.414062"/>
    <use xlink:href="#DejaVuSans-20" x="538.623047"/>
    <use xlink:href="#DejaVuSans-2d" x="570.410156"/>
    <use xlink:href="#DejaVuSans-20" x="606.494141"/>
    <use xlink:href="#DejaVuSans-30" x="638.28125"/>
   </g>
  </g>
 </g>
 <defs>
  <clipPath id="p5beb72b9a5">
   <rect x="44.990865" y="20.61447" width="179.586147" height="85.770811"/>
  </clipPath>
  <clipPath id="pfecce1949c">
   <rect x="276.218449" y="20.61447" width="179.586147" height="85.770811"/>
  </clipPath>
  <clipPath id="p867924e0de">
   <rect x="44.990865" y="131.701408" width="179.586147" height="85.770811"/>
  </clipPath>
  <clipPath id="p7a9d32b7d4">
   <rect x="276.218449" y="131.701408" width="179.586147" height="85.770811"/>
  </clipPath>
  <clipPath id="pfc0370ae2f">
   <rect x="44.990865" y="240.150824" width="410.813731" height="85.770811"/>
  </clipPath>
 </defs>
</svg>
